<?xml version="1.0" encoding="utf-8"?>
<!-- Generator: Adobe Illustrator 25.0.1, SVG Export Plug-In . SVG Version: 6.00 Build 0)  -->
<svg version="1.0" id="katman_1" xmlns="http://www.w3.org/2000/svg" xmlns:xlink="http://www.w3.org/1999/xlink" x="0px" y="0px"
	 viewBox="0 0 109.8 84.6" style="enable-background:new 0 0 109.8 84.6;" xml:space="preserve">
<style type="text/css">
	.st0{fill-rule:evenodd;clip-rule:evenodd;}
</style>
<path d="M44.9,46.6h-0.8c-1.1,0-1.5-0.2-1.5-1.1v-8.2c0-0.9,0.2-1,1.4-1.2v-0.5H39v0.5c1.2,0.1,1.4,0.2,1.4,1.2v8.3
	c0,0.9-0.2,1-1.4,1.2v0.5h8.8l0.6-3.5h-0.5C46.8,45.8,46.2,46.6,44.9,46.6z"/>
<path d="M55.9,45.9v-5c0-1.9-1.1-2.7-3.2-2.7c-1.8,0-3.2,0.8-3.2,2.3c0,0.2,0,0.4,0.1,0.6h2c-0.1-0.3-0.1-0.6-0.1-0.9
	c0-1.1,0.4-1.5,1.1-1.5c0.8,0,1.2,0.2,1.2,1.7v1.3l-2.5,0.9c-1.3,0.5-2.3,1.1-2.3,2.5c0,1.3,0.9,2.1,2.2,2.1c1.2,0,2.1-0.7,2.6-1.4
	l0,0v1.3H57v-0.5C56.2,46.7,55.9,46.6,55.9,45.9z M53.9,45.5c-0.5,0.4-0.9,0.6-1.4,0.6c-0.9,0-1.3-0.6-1.3-1.5
	c0-0.9,0.4-1.3,1.2-1.6l1.6-0.6V45.5z"/>
<path d="M71.3,45.9v-5c0-1.8-0.7-2.7-2.2-2.7c-1.4,0-2.3,0.8-3,1.7c-0.2-1.1-0.9-1.7-2.1-1.7c-1.4,0-2.2,0.7-3,1.6v-1.6h-0.3
	l-2.8,0.9v0.3l1,0.6V46c0,0.6-0.3,0.7-1.1,0.8v0.5H62v-0.5c-0.8,0-1-0.2-1-0.8v-5.6c0.6-0.4,1.1-0.8,1.8-0.8c0.9,0,1.3,0.5,1.3,1.5
	V46c0,0.6-0.2,0.7-1,0.8v0.5h4.2v-0.5c-0.8,0-1-0.2-1-0.8v-5.6c0.6-0.4,1.1-0.8,1.9-0.8c0.9,0,1.3,0.5,1.3,1.5l0,4.8
	c0,0.6-0.2,0.8-1,0.8v0.5h4.2v-0.5C71.6,46.7,71.3,46.5,71.3,45.9z"/>
<path d="M78.4,38.3c-1.3,0-2.2,0.7-2.8,1.5v-5.6h-0.3L72.4,35v0.3l1,0.5v11.4h0.3l1-0.4c0.7,0.4,1.6,0.6,2.4,0.6
	c2.5,0,4.5-1.9,4.5-5.1C81.7,39.8,80.4,38.3,78.4,38.3z M77.2,46.8c-0.6,0-1.2-0.3-1.6-0.9v-5.6c0.4-0.4,1-0.7,1.6-0.7
	c1.7,0,2.4,1.5,2.4,3.5C79.6,45.2,78.7,46.8,77.2,46.8z"/>
<path d="M90.7,46V34.2h-0.3L87.6,35v0.3l1,0.5v3.1c-0.4-0.4-1.1-0.6-1.8-0.6c-2.4,0-4.2,1.8-4.2,4.9c0,2.5,1.3,4.1,3.4,4.1
	c1.2,0,2-0.6,2.7-1.6v1.4h3.1v-0.5C91,46.7,90.7,46.6,90.7,46z M88.7,45.5c-0.4,0.4-1,0.6-1.6,0.6c-1.6,0-2.4-1.5-2.4-3.6
	c0-2.1,0.9-3.5,2.3-3.5c1,0,1.7,0.8,1.7,2.2V45.5z"/>
<path d="M99.1,45.9v-5c0-1.9-1.1-2.7-3.2-2.7c-1.8,0-3.2,0.8-3.2,2.3c0,0.2,0,0.4,0.1,0.6h2c-0.1-0.3-0.1-0.6-0.1-0.9
	c0-1.1,0.4-1.5,1.1-1.5c0.8,0,1.2,0.2,1.2,1.7v1.3l-2.5,0.9c-1.3,0.5-2.3,1.1-2.3,2.5c0,1.3,0.9,2.1,2.2,2.1c1.2,0,2.1-0.7,2.6-1.4
	v0h0v1.3l3.1,0v-0.5C99.4,46.7,99.1,46.6,99.1,45.9z M97,45.5c-0.5,0.4-0.9,0.6-1.4,0.6c-0.9,0-1.3-0.6-1.3-1.5
	c0-0.9,0.4-1.3,1.2-1.6l1.6-0.6L97,45.5L97,45.5z"/>
<path class="st0" d="M9.9,31.5v10.8c0,7.8,6.1,10.6,10.5,12.6h0l0.4,0.2c0.1,0,0.2-0.1,0.3-0.1c0,0,0.1,0,0.2-0.1
	c4.5-2,10.6-4.7,10.6-12.5V31.5H9.9z M23.8,47.2l-0.2-0.6l-3.2-8.4c-0.2,0.5-0.6,1.7-1.1,2.9l-1.8,4.9c-0.1,0.2,0,0.4,0,0.4
	c0.1,0.2,0.4,0.2,0.9,0.2h0.1v0.5H15v-0.5h0.3c0.5,0,0.8-0.2,1.1-0.8l0.3-0.8l3.2-8.1l-0.6-1.5h2.9l4.1,10.7l0.4,1L23.8,47.2z"/>
</svg>
